# xmcd
#
# Track frame offsets:
#	150
#	19206
#	38314
#	60695
#	81367
#	101074
#	137312
#	161538
#	171813
#	195675
#	213748
#
# Disc length: 3048 seconds
#
# Revision: 0
# Processed by: cddbd v1.4PL0 Copyright (c) Steve Scherf et al.
# Submitted via: audiograbber 1.81.02
#
DISCID=8e0be60b
DTITLE=The Bruces - War of the Bruces
DYEAR=2002
DGENRE=Country
TTITLE0=Do Si Do
TTITLE1=The Cold War
TTITLE2=Two Dogs
TTITLE3=Haint Blue
TTITLE4=Sunken City
TTITLE5=Invisible Ceiling
TTITLE6=Depp Colors Bleed
TTITLE7=Hey, Bird
TTITLE8=After Hours
TTITLE9=Mountain
TTITLE10=I Wish I Was a Mole in the Ground
EXTD=Misra Records\nwww.misrarecords.com
EXTT0=
EXTT1=
EXTT2=
EXTT3=
EXTT4=
EXTT5=
EXTT6=
EXTT7=
EXTT8=
EXTT9=
EXTT10=
PLAYORDER=
